<svg width="20" height="20" viewBox="0 0 20 20" fill="none" xmlns="http://www.w3.org/2000/svg">
<circle cx="9.83952" cy="9.83855" r="9.68816" fill="#E5E5E5"/>
<path fill-rule="evenodd" clip-rule="evenodd" d="M12.6271 9.17469C11.4543 9.17469 10.5035 8.22395 10.5035 7.05115V5.59131C10.5035 5.22476 10.2064 4.92761 9.83985 4.92761C9.4733 4.92761 9.17615 5.22476 9.17615 5.59131V7.05115C9.17615 8.22395 8.22541 9.17469 7.05261 9.17469L5.59241 9.17469C5.22586 9.17469 4.92871 9.47184 4.92871 9.83839C4.92871 10.2049 5.22586 10.5021 5.59241 10.5021L7.05243 10.5021C8.22533 10.5021 9.17615 11.4529 9.17615 12.6258L9.17615 14.086C9.17615 14.4525 9.4733 14.7497 9.83985 14.7497C10.2064 14.7497 10.5035 14.4525 10.5035 14.086L10.5035 12.6257C10.5035 11.4529 11.4543 10.5021 12.6272 10.5021L14.0871 10.5021C14.4536 10.5021 14.7508 10.2049 14.7508 9.83839C14.7508 9.47184 14.4536 9.17469 14.0871 9.17469L12.6271 9.17469Z" fill="white"/>
</svg>
