<svg width="34" height="33" viewBox="0 0 34 33" fill="none" xmlns="http://www.w3.org/2000/svg">
<path d="M31.6539 9.4044C32.6581 8.39994 33.2222 7.0376 33.2222 5.61708C33.2222 4.19655 32.6581 2.83421 31.6539 1.82975C30.6498 0.825287 29.2879 0.260986 27.8679 0.260986C26.4478 0.260986 25.0859 0.825287 24.0818 1.82975L22.2038 3.70969L29.7746 11.283L31.6539 9.4044Z" fill="#F2950A"/>
<path d="M27.8819 13.1763L11.8796 29.1866C11.0218 30.0446 9.94698 30.6532 8.77013 30.9474L2.63691 32.4819C2.41259 32.5381 2.17754 32.5352 1.95467 32.4735C1.7318 32.4118 1.52871 32.2934 1.3652 32.1298C1.20168 31.9662 1.08331 31.7631 1.02163 31.5401C0.959956 31.3172 0.957069 31.0821 1.01325 30.8577L2.54723 24.7224C2.84133 23.5452 3.44974 22.4701 4.30742 21.612L20.3097 5.60302L27.8819 13.1777V13.1763Z" fill="#F2950A"/>
</svg>
