<svg width="19" height="19" viewBox="0 0 19 19" fill="none" xmlns="http://www.w3.org/2000/svg">
<path d="M18.076 5.38498C18.6676 4.79341 19 3.99106 19 3.15445C19 2.31784 18.6676 1.51549 18.076 0.923917C17.4844 0.332343 16.6821 0 15.8454 0C15.0088 0 14.2064 0.332343 13.6148 0.923917L12.5084 2.0311L16.9688 6.49138L18.076 5.38498Z" fill="#F2950A"/>
<path d="M15.8537 7.60645L6.42569 17.0356C5.92029 17.5409 5.28707 17.8994 4.59371 18.0726L0.980233 18.9764C0.848073 19.0095 0.70959 19.0078 0.578283 18.9714C0.446975 18.9351 0.327321 18.8654 0.230983 18.769C0.134644 18.6727 0.0649077 18.553 0.0285689 18.4217C-0.00776996 18.2904 -0.00947131 18.152 0.023631 18.0198L0.927395 14.4065C1.10067 13.7132 1.45912 13.08 1.96444 12.5746L11.3924 3.14617L15.8537 7.60724V7.60645Z" fill="#F2950A"/>
</svg>
