<svg width="21" height="21" viewBox="0 0 21 21" fill="none" xmlns="http://www.w3.org/2000/svg">
<path d="M19.5165 11.7847H11.5167V19.7847C11.5167 20.3366 11.0686 20.7847 10.5165 20.7847C9.96466 20.7847 9.5166 20.3366 9.5166 19.7847V11.7847H1.51654C0.964661 11.7847 0.516602 11.3366 0.516602 10.7847C0.516602 10.2327 0.964661 9.78461 1.51654 9.78461H9.5166V1.78473C9.5166 1.23267 9.96466 0.784607 10.5165 0.784607C11.0686 0.784607 11.5167 1.23267 11.5167 1.78473V9.78461H19.5165C20.0686 9.78461 20.5167 10.2327 20.5167 10.7847C20.5167 11.3366 20.0686 11.7847 19.5165 11.7847Z" fill="white"/>
</svg>
