<svg width="20" height="20" viewBox="0 0 20 20" fill="none" xmlns="http://www.w3.org/2000/svg">
<path d="M9.84576 0.584229C14.7603 0.584229 18.7443 4.48023 18.7443 9.28619C18.7443 11.5542 17.857 13.6196 16.4033 15.1685L19.2622 17.9558C19.5302 18.2172 19.5307 18.6415 19.2634 18.9036C19.0205 19.1418 18.6398 19.1639 18.3712 18.9696L18.2943 18.9048L15.4017 16.084C13.8792 17.2756 11.9476 17.9882 9.84576 17.9882C4.93126 17.9882 0.947266 14.0922 0.947266 9.28619C0.947266 4.48023 4.93126 0.584229 9.84576 0.584229ZM9.84576 1.92456C5.68822 1.92456 2.31787 5.22048 2.31787 9.28619C2.31787 13.3519 5.68822 16.6478 9.84576 16.6478C14.0033 16.6478 17.3736 13.3519 17.3736 9.28619C17.3736 5.22048 14.0033 1.92456 9.84576 1.92456Z" fill="#334D6E"/>
</svg>
