<svg width="17" height="22" viewBox="0 0 17 22" fill="none" xmlns="http://www.w3.org/2000/svg">
<path d="M8.50023 0.851318C9.43256 0.851282 10.3286 1.22498 10.9999 1.89382C11.6712 2.56267 12.0654 3.47455 12.0997 4.4377L12.102 4.57532L15.992 4.57472C16.2522 4.57484 16.5022 4.67893 16.6899 4.86522C16.8776 5.05151 16.9884 5.30558 16.9991 5.57435C17.0099 5.84311 16.9197 6.10575 16.7474 6.30737C16.5752 6.509 16.3342 6.634 16.0749 6.65625L15.992 6.65983H15.3194L14.3818 19.51C14.3353 20.1467 14.0578 20.7418 13.6049 21.1759C13.152 21.6101 12.5572 21.8513 11.9395 21.8513H5.06095C4.44329 21.8513 3.84844 21.6101 3.39554 21.1759C2.94265 20.7418 2.66515 20.1467 2.61865 19.51L1.68045 6.65983H1.0085C0.755311 6.65981 0.511391 6.56133 0.325194 6.38397C0.138997 6.20661 0.0241468 5.96333 0.00345747 5.70247L0 5.61728C2.13611e-05 5.35554 0.0952782 5.10338 0.266848 4.9109C0.438419 4.71841 0.673749 4.59968 0.926093 4.5783L1.0085 4.57472H4.89844C4.89844 2.60996 6.37085 1.00025 8.23744 0.86085L8.36826 0.853701L8.50023 0.851318ZM10.6613 8.596C10.483 8.59591 10.3109 8.66422 10.1785 8.78769C10.0461 8.91117 9.96266 9.08104 9.9444 9.26442L9.94094 9.34068V16.4896L9.9444 16.5659C9.9619 16.7499 10.045 16.9206 10.1775 17.0447C10.31 17.1689 10.4825 17.2377 10.6613 17.2377C10.8401 17.2377 11.0126 17.1689 11.1451 17.0447C11.2776 16.9206 11.3607 16.7499 11.3782 16.5659L11.3817 16.4896V9.34068L11.3782 9.26442C11.3599 9.08104 11.2765 8.91117 11.1441 8.78769C11.0117 8.66422 10.8396 8.59591 10.6613 8.596ZM6.33915 8.596C6.16082 8.59591 5.98879 8.66422 5.85636 8.78769C5.72393 8.91117 5.64051 9.08104 5.62225 9.26442L5.61879 9.34068V16.4896L5.62225 16.5659C5.63975 16.7499 5.72284 16.9206 5.85535 17.0447C5.98785 17.1689 6.16031 17.2377 6.33915 17.2377C6.518 17.2377 6.69045 17.1689 6.82296 17.0447C6.95546 16.9206 7.03855 16.7499 7.05605 16.5659L7.05951 16.4896V9.34068L7.05605 9.26442C7.03779 9.08104 6.95437 8.91117 6.82195 8.78769C6.68952 8.66422 6.51749 8.59591 6.33915 8.596ZM8.59704 2.9394L8.50023 2.93642C8.09666 2.9364 7.70829 3.09554 7.41433 3.38138C7.12037 3.66722 6.94297 4.05822 6.91832 4.47464L6.91544 4.57532L10.085 4.57472C10.085 4.15753 9.93109 3.75605 9.65459 3.45216C9.37809 3.14828 8.99986 2.96489 8.59704 2.9394Z" fill="#E5E5E5"/>
</svg>
