<svg width="23" height="16" viewBox="0 0 23 16" fill="none" xmlns="http://www.w3.org/2000/svg">
<path d="M11.8306 5.29517C12.6262 5.29517 13.3893 5.61124 13.9519 6.17385C14.5145 6.73645 14.8306 7.49952 14.8306 8.29517C14.8306 9.09082 14.5145 9.85388 13.9519 10.4165C13.3893 10.9791 12.6262 11.2952 11.8306 11.2952C11.0349 11.2952 10.2719 10.9791 9.70925 10.4165C9.14664 9.85388 8.83057 9.09082 8.83057 8.29517C8.83057 7.49952 9.14664 6.73645 9.70925 6.17385C10.2719 5.61124 11.0349 5.29517 11.8306 5.29517ZM11.8306 0.795166C16.8306 0.795166 21.1006 3.90517 22.8306 8.29517C21.1006 12.6852 16.8306 15.7952 11.8306 15.7952C6.83057 15.7952 2.56057 12.6852 0.830566 8.29517C2.56057 3.90517 6.83057 0.795166 11.8306 0.795166ZM3.01057 8.29517C4.66057 11.6552 8.07057 13.7952 11.8306 13.7952C15.5906 13.7952 19.0006 11.6552 20.6506 8.29517C19.0006 4.93517 15.5906 2.79517 11.8306 2.79517C8.07057 2.79517 4.66057 4.93517 3.01057 8.29517Z" fill="#E5E5E5"/>
</svg>
